<?xml version="1.0" standalone="no"?>
<!DOCTYPE svg PUBLIC "-//W3C//DTD SVG 20010904//EN"
 "http://www.w3.org/TR/2001/REC-SVG-20010904/DTD/svg10.dtd">
<svg version="1.0" xmlns="http://www.w3.org/2000/svg"
 width="300.000000pt" height="300.000000pt" viewBox="0 0 300.000000 300.000000"
 preserveAspectRatio="xMidYMid meet">
<metadata>
Created by potrace 1.14, written by Peter Selinger 2001-2017
</metadata>
<g transform="translate(0.000000,300.000000) scale(0.100000,-0.100000)"
fill="#000000" stroke="none">
<path d="M22 2978 c-17 -17 -17 -2939 0 -2956 17 -17 2939 -17 2956 0 17 17
17 2939 0 2956 -17 17 -2939 17 -2956 0z m1508 -659 c55 -25 105 -71 131 -121
14 -28 26 -38 43 -38 12 0 51 -14 86 -31 64 -33 112 -86 137 -152 14 -40 16
-137 3 -172 -5 -14 -12 -39 -15 -55 -3 -15 -34 -102 -69 -192 l-64 -163 384
-3 c211 -1 384 -4 384 -7 0 -2 -20 -32 -44 -67 -86 -125 -84 -102 -16 -202 33
-49 60 -90 60 -92 0 -2 -206 -4 -458 -4 l-457 0 -57 -147 c-32 -82 -63 -163
-69 -181 -6 -18 -16 -31 -22 -29 -5 1 -41 83 -80 180 l-69 177 -444 0 c-244 0
-444 2 -444 5 0 2 20 32 44 67 86 125 84 102 16 202 -33 49 -60 90 -60 92 0 2
167 4 370 4 204 0 370 2 370 5 0 3 -30 81 -66 173 -60 153 -65 171 -60 220 8
66 44 139 88 178 34 30 34 31 30 97 -6 86 16 145 73 202 72 72 186 95 275 54z"/>
<path d="M1356 2305 c-92 -35 -156 -124 -156 -216 0 -76 3 -79 58 -62 30 9 69
13 108 9 61 -5 61 -5 100 35 44 46 93 74 147 84 42 8 42 7 23 43 -48 92 -183
144 -280 107z"/>
<path d="M1575 2120 c-28 -11 -68 -37 -89 -59 l-37 -38 50 -36 c60 -44 101
-110 110 -180 l6 -52 135 0 135 0 14 30 c20 42 26 126 11 171 -47 142 -201
218 -335 164z"/>
<path d="M1260 2005 c-88 -28 -159 -118 -173 -217 l-6 -38 255 0 254 0 0 35
c0 151 -178 269 -330 220z"/>
<path d="M1090 1723 c1 -5 29 -80 63 -168 l63 -160 270 -3 270 -2 54 137 c29
76 59 153 67 171 l13 32 -400 0 c-220 0 -400 -3 -400 -7z m570 -61 c0 -14
-129 -136 -137 -129 -4 4 22 37 57 72 61 61 80 75 80 57z m35 -42 c3 -5 -31
-46 -77 -91 -47 -47 -84 -76 -86 -69 -3 9 143 170 155 170 1 0 5 -4 8 -10z"/>
<path d="M1841 1337 c-48 -18 -74 -54 -67 -91 9 -44 28 -58 93 -71 69 -14 80
-38 20 -43 -32 -3 -39 0 -44 18 -4 17 -12 20 -37 18 -28 -3 -31 -6 -31 -38 0
-48 46 -73 127 -67 72 4 108 33 108 84 0 48 -34 78 -98 87 -53 7 -74 22 -51
37 22 14 57 10 67 -7 6 -10 19 -14 38 -12 25 3 29 7 29 33 0 22 -7 33 -25 42
-41 19 -93 23 -129 10z"/>
<path d="M680 1311 c0 -16 6 -31 12 -33 19 -7 -40 -139 -64 -146 -15 -3 -18
-12 -16 -36 l3 -31 65 0 c63 0 65 1 68 28 2 15 -1 27 -7 27 -6 0 -11 7 -11 15
0 11 12 15 44 15 42 0 74 -19 48 -28 -19 -6 -14 -49 6 -54 9 -2 40 -3 67 -3
49 0 50 1 53 31 2 25 -1 33 -18 37 -12 3 -24 15 -27 27 -3 12 -23 57 -44 101
l-38 79 -71 0 -70 0 0 -29z m120 -93 c0 -4 -9 -8 -20 -8 -21 0 -24 8 -13 36 6
16 7 16 20 -2 7 -10 13 -21 13 -26z"/>
<path d="M980 1310 c0 -20 5 -30 15 -30 12 0 15 -15 15 -75 0 -60 -3 -75 -15
-75 -11 0 -15 -11 -15 -35 l0 -36 68 3 c63 3 67 5 70 27 2 15 -3 30 -13 37
-11 8 -15 23 -13 46 l3 33 50 -68 c48 -66 78 -86 110 -73 12 4 15 26 15 111 0
87 3 105 15 105 10 0 15 10 15 30 l0 30 -70 0 -70 0 0 -30 c0 -16 7 -33 16
-38 10 -6 14 -19 12 -42 l-3 -33 -53 71 -53 72 -50 0 c-48 0 -49 -1 -49 -30z"/>
<path d="M1330 1310 c0 -20 5 -30 15 -30 12 0 15 -15 15 -75 0 -60 -3 -75 -15
-75 -10 0 -15 -10 -15 -33 l0 -33 70 -2 70 -2 0 35 c0 24 -5 35 -15 35 -8 0
-15 7 -15 15 0 10 11 15 35 15 33 0 35 2 35 35 0 33 -2 35 -35 35 -28 0 -35 4
-35 19 0 23 59 36 67 14 3 -7 18 -13 34 -13 28 0 29 2 29 45 l0 45 -120 0
-120 0 0 -30z"/>
<path d="M1600 1310 c0 -20 5 -30 15 -30 12 0 15 -15 15 -75 0 -60 -3 -75 -15
-75 -17 0 -21 -55 -5 -65 6 -4 40 -3 75 0 61 7 65 9 65 32 0 16 -7 27 -20 30
-18 5 -20 14 -20 78 0 65 2 73 21 78 15 4 20 12 17 29 -3 21 -8 23 -75 26
l-73 3 0 -31z"/>
<path d="M2100 1310 c0 -16 5 -30 10 -30 16 0 12 -15 -21 -85 -17 -36 -38 -65
-46 -65 -10 0 -13 -9 -11 -32 l3 -33 65 0 c63 0 65 1 68 28 2 15 -1 27 -7 27
-6 0 -11 7 -11 15 0 11 12 15 44 15 42 0 74 -19 48 -28 -19 -6 -14 -49 6 -54
9 -2 40 -3 67 -3 47 0 50 1 53 28 3 22 -1 30 -16 34 -12 3 -27 23 -37 51 -10
26 -31 73 -47 105 l-28 57 -70 0 -70 0 0 -30z m120 -92 c0 -4 -9 -8 -20 -8
-21 0 -24 8 -13 36 6 16 7 16 20 -2 7 -10 13 -21 13 -26z"/>
<path d="M1370 1010 c0 -22 114 -300 120 -293 4 4 31 69 59 143 29 74 55 141
58 148 4 9 -23 12 -116 12 -72 0 -121 -4 -121 -10z"/>
</g>
</svg>